<svg xmlns="http://www.w3.org/2000/svg" xmlns:xlink="http://www.w3.org/1999/xlink" width="1366" zoomAndPan="magnify" viewBox="0 0 1024.5 576" height="768" preserveAspectRatio="xMidYMid meet" version="1.0"><defs><g/><clipPath id="580215c7bf"><path d="M 0.230469 0.207031 L 200.753906 0.207031 L 200.753906 200.730469 L 0.230469 200.730469 Z M 0.230469 0.207031 " clip-rule="nonzero"/></clipPath><clipPath id="4f9aa93849"><path d="M 218 58 L 600.359375 58 L 600.359375 179 L 218 179 Z M 218 58 " clip-rule="nonzero"/></clipPath><clipPath id="138924b87a"><rect x="0" width="383" y="0" height="121"/></clipPath><clipPath id="6e32348222"><rect x="0" width="601" y="0" height="204"/></clipPath></defs><g transform="matrix(1, 0, 0, 1, 221, 169)"><g clip-path="url(#6e32348222)"><path fill="#8ed2e8" d="M 100.53125 3.445312 C 46.917969 3.445312 3.46875 46.90625 3.46875 100.507812 C 3.46875 133.757812 20.179688 163.097656 45.660156 180.582031 L 45.667969 180.59375 C 54.003906 185.085938 63.089844 188.355469 72.683594 190.160156 C 72.691406 190.167969 72.699219 190.167969 72.699219 190.167969 C 78.382812 191.242188 84.234375 191.804688 90.21875 191.804688 C 142.195312 191.804688 184.484375 149.515625 184.484375 97.535156 C 184.484375 95.988281 185.742188 94.730469 187.289062 94.730469 C 188.835938 94.730469 190.09375 95.988281 190.09375 97.535156 C 190.09375 140.273438 163.113281 176.824219 125.289062 191.058594 C 125.277344 191.066406 125.261719 191.066406 125.246094 191.066406 C 115.414062 194.769531 104.851562 196.957031 93.832031 197.347656 C 96.042969 197.5 98.28125 197.582031 100.53125 197.582031 C 154.144531 197.582031 197.59375 154.121094 197.59375 100.511719 C 197.59375 46.90625 154.144531 3.445312 100.53125 3.445312 Z M 136.953125 116.703125 L 116.71875 116.703125 L 116.71875 136.933594 C 116.71875 145.144531 109.476562 151.804688 100.53125 151.804688 C 91.589844 151.804688 84.34375 145.144531 84.34375 136.933594 L 84.34375 116.707031 L 64.109375 116.707031 C 55.894531 116.707031 49.234375 109.453125 49.234375 100.507812 C 49.234375 91.574219 55.894531 84.320312 64.109375 84.320312 L 84.34375 84.320312 L 84.34375 64.085938 C 84.34375 55.871094 91.589844 49.214844 100.53125 49.214844 C 109.476562 49.214844 116.71875 55.871094 116.71875 64.085938 L 116.71875 84.320312 L 136.953125 84.320312 C 145.167969 84.320312 151.828125 91.574219 151.828125 100.507812 C 151.828125 109.453125 145.167969 116.703125 136.953125 116.703125 Z M 185.199219 72.972656 C 182.417969 75.753906 177.914062 75.753906 175.132812 72.972656 C 172.351562 70.183594 172.351562 65.679688 175.132812 62.902344 C 177.914062 60.121094 182.417969 60.121094 185.199219 62.902344 C 187.984375 65.679688 187.984375 70.191406 185.199219 72.972656 Z M 185.199219 72.972656 " fill-opacity="1" fill-rule="nonzero"/><g clip-path="url(#580215c7bf)"><path fill="#8ed2e8" d="M 100.53125 0.238281 C 45.246094 0.238281 0.261719 45.222656 0.261719 100.507812 C 0.261719 123.308594 7.910156 144.363281 20.785156 161.214844 C 20.785156 161.222656 20.785156 161.222656 20.785156 161.222656 C 20.792969 161.230469 20.800781 161.246094 20.816406 161.253906 L 20.824219 161.261719 C 27.933594 169.003906 36.324219 175.558594 45.660156 180.585938 L 45.667969 180.59375 C 54.003906 185.089844 63.089844 188.359375 72.683594 190.160156 C 34.476562 178.269531 6.664062 142.574219 6.664062 100.511719 C 6.664062 48.757812 48.769531 6.644531 100.53125 6.644531 C 152.285156 6.644531 194.398438 48.757812 194.398438 100.511719 C 194.398438 143.703125 165.066406 180.175781 125.289062 191.058594 C 125.277344 191.066406 125.261719 191.066406 125.246094 191.066406 C 115.414062 194.769531 104.851562 196.957031 93.832031 197.347656 L 93.824219 197.347656 C 92.628906 197.390625 91.429688 197.414062 90.214844 197.414062 C 81.257812 197.414062 72.570312 196.226562 64.300781 194.007812 C 75.542969 198.382812 87.765625 200.78125 100.53125 200.78125 C 155.820312 200.78125 200.800781 155.796875 200.800781 100.511719 C 200.800781 45.222656 155.820312 0.238281 100.53125 0.238281 Z M 100.53125 0.238281 " fill-opacity="1" fill-rule="nonzero"/></g><g clip-path="url(#4f9aa93849)"><g transform="matrix(1, 0, 0, 1, 218, 58)"><g clip-path="url(#138924b87a)"><g fill="#8ed2e8" fill-opacity="1"><g transform="translate(3.998923, 93.369771)"><g><path d="M 30.484375 1.171875 C 25.097656 1.171875 19.882812 0.441406 14.84375 -1.015625 C 9.8125 -2.484375 5.773438 -4.382812 2.734375 -6.71875 L 8.078125 -18.609375 C 11.003906 -16.460938 14.476562 -14.738281 18.5 -13.4375 C 22.53125 -12.132812 26.554688 -11.484375 30.578125 -11.484375 C 35.054688 -11.484375 38.367188 -12.148438 40.515625 -13.484375 C 42.660156 -14.816406 43.734375 -16.585938 43.734375 -18.796875 C 43.734375 -20.421875 43.097656 -21.765625 41.828125 -22.828125 C 40.566406 -23.898438 38.941406 -24.757812 36.953125 -25.40625 C 34.972656 -26.0625 32.296875 -26.78125 28.921875 -27.5625 C 23.734375 -28.789062 19.484375 -30.019531 16.171875 -31.25 C 12.859375 -32.488281 10.015625 -34.472656 7.640625 -37.203125 C 5.273438 -39.929688 4.09375 -43.566406 4.09375 -48.109375 C 4.09375 -52.066406 5.160156 -55.648438 7.296875 -58.859375 C 9.441406 -62.078125 12.671875 -64.628906 16.984375 -66.515625 C 21.304688 -68.398438 26.585938 -69.34375 32.828125 -69.34375 C 37.171875 -69.34375 41.421875 -68.820312 45.578125 -67.78125 C 49.734375 -66.738281 53.367188 -65.242188 56.484375 -63.296875 L 51.609375 -51.328125 C 45.316406 -54.898438 39.019531 -56.6875 32.71875 -56.6875 C 28.300781 -56.6875 25.035156 -55.96875 22.921875 -54.53125 C 20.816406 -53.101562 19.765625 -51.222656 19.765625 -48.890625 C 19.765625 -46.554688 20.984375 -44.816406 23.421875 -43.671875 C 25.859375 -42.535156 29.578125 -41.414062 34.578125 -40.3125 C 39.765625 -39.082031 44.015625 -37.847656 47.328125 -36.609375 C 50.640625 -35.378906 53.476562 -33.429688 55.84375 -30.765625 C 58.21875 -28.109375 59.40625 -24.507812 59.40625 -19.96875 C 59.40625 -16.070312 58.316406 -12.515625 56.140625 -9.296875 C 53.972656 -6.085938 50.710938 -3.539062 46.359375 -1.65625 C 42.003906 0.226562 36.710938 1.171875 30.484375 1.171875 Z M 30.484375 1.171875 "/></g></g></g><g fill="#8ed2e8" fill-opacity="1"><g transform="translate(66.113573, 93.369771)"><g><path d="M 52.984375 -14.609375 L 21.328125 -14.609375 L 15.296875 0 L -0.875 0 L 29.515625 -68.171875 L 45.09375 -68.171875 L 75.578125 0 L 59.015625 0 Z M 48.015625 -26.59375 L 37.203125 -52.6875 L 26.390625 -26.59375 Z M 48.015625 -26.59375 "/></g></g></g><g fill="#8ed2e8" fill-opacity="1"><g transform="translate(140.69009, 93.369771)"><g><path d="M 70.125 0 L 70.03125 -40.90625 L 49.96875 -7.203125 L 42.859375 -7.203125 L 22.890625 -40.03125 L 22.890625 0 L 8.078125 0 L 8.078125 -68.171875 L 21.140625 -68.171875 L 46.65625 -25.8125 L 71.78125 -68.171875 L 84.734375 -68.171875 L 84.921875 0 Z M 70.125 0 "/></g></g></g><g fill="#8ed2e8" fill-opacity="1"><g transform="translate(233.667276, 93.369771)"><g><path d="M 60.875 -12.65625 L 60.875 0 L 8.078125 0 L 8.078125 -68.171875 L 59.609375 -68.171875 L 59.609375 -55.515625 L 23.765625 -55.515625 L 23.765625 -40.703125 L 55.421875 -40.703125 L 55.421875 -28.4375 L 23.765625 -28.4375 L 23.765625 -12.65625 Z M 60.875 -12.65625 "/></g></g></g><g fill="#8ed2e8" fill-opacity="1"><g transform="translate(298.994702, 93.369771)"><g><path d="M 8.078125 -68.171875 L 39.046875 -68.171875 C 46.453125 -68.171875 52.992188 -66.757812 58.671875 -63.9375 C 64.359375 -61.113281 68.773438 -57.132812 71.921875 -52 C 75.066406 -46.875 76.640625 -40.90625 76.640625 -34.09375 C 76.640625 -27.269531 75.066406 -21.289062 71.921875 -16.15625 C 68.773438 -11.03125 64.359375 -7.054688 58.671875 -4.234375 C 52.992188 -1.410156 46.453125 0 39.046875 0 L 8.078125 0 Z M 38.28125 -12.953125 C 45.09375 -12.953125 50.523438 -14.847656 54.578125 -18.640625 C 58.640625 -22.441406 60.671875 -27.59375 60.671875 -34.09375 C 60.671875 -40.582031 58.640625 -45.722656 54.578125 -49.515625 C 50.523438 -53.316406 45.09375 -55.21875 38.28125 -55.21875 L 23.859375 -55.21875 L 23.859375 -12.953125 Z M 38.28125 -12.953125 "/></g></g></g></g></g></g></g></g></svg>